<svg width="64" height="64" viewBox="0 0 64 64" fill="none" xmlns="http://www.w3.org/2000/svg">
<path d="M43.875 19.875V20.25H44.25H54.5C54.5679 20.25 54.625 20.3071 54.625 20.375V24.125C54.625 24.1929 54.5679 24.25 54.5 24.25H44.25H43.875V24.625V39.375V39.75H44.25H54.5C54.5679 39.75 54.625 39.8071 54.625 39.875V43.625C54.625 43.6929 54.5679 43.75 54.5 43.75H44.25H43.875V44.125V54.5C43.875 54.5679 43.8179 54.625 43.75 54.625H39.75C39.6821 54.625 39.625 54.5679 39.625 54.5V44.125V43.75H39.25H25H24.625V44.125V54.5C24.625 54.5679 24.5679 54.625 24.5 54.625H20.5C20.4321 54.625 20.375 54.5679 20.375 54.5V44.125V43.75H20H9.5C9.43211 43.75 9.375 43.6929 9.375 43.625V39.875C9.375 39.8071 9.43211 39.75 9.5 39.75H20H20.375V39.375V24.625V24.25H20H9.5C9.43211 24.25 9.375 24.1929 9.375 24.125V20.375C9.375 20.3071 9.43211 20.25 9.5 20.25H20H20.375V19.875V9.5C20.375 9.43211 20.4321 9.375 20.5 9.375H24.5C24.5679 9.375 24.625 9.43211 24.625 9.5V19.875V20.25H25H39.25H39.625V19.875V9.5C39.625 9.43211 39.6821 9.375 39.75 9.375H43.75C43.8179 9.375 43.875 9.43211 43.875 9.5V19.875ZM39.25 39.75H39.625V39.375V24.625V24.25H39.25H25H24.625V24.625V39.375V39.75H25H39.25Z" fill="#B4B4B4" stroke="white" stroke-width="0.75"/>
</svg>
