<svg width="32" height="32" viewBox="0 0 32 32" fill="none" xmlns="http://www.w3.org/2000/svg">
<path d="M28 6.66666H3.99996C3.64634 6.66666 3.3072 6.80714 3.05715 7.05719C2.8071 7.30724 2.66663 7.64638 2.66663 8V13.3333H3.85729C5.18529 13.3333 6.41729 14.2413 6.63063 15.552C6.69562 15.9347 6.67631 16.327 6.57405 16.7015C6.47178 17.076 6.28903 17.4236 6.03855 17.7202C5.78807 18.0168 5.47588 18.2551 5.12378 18.4186C4.77168 18.582 4.38815 18.6667 3.99996 18.6667H2.66663V24C2.66663 24.3536 2.8071 24.6928 3.05715 24.9428C3.3072 25.1928 3.64634 25.3333 3.99996 25.3333H28C28.3536 25.3333 28.6927 25.1928 28.9428 24.9428C29.1928 24.6928 29.3333 24.3536 29.3333 24V18.6667H28C27.6118 18.6667 27.2282 18.582 26.8761 18.4186C26.524 18.2551 26.2118 18.0168 25.9614 17.7202C25.7109 17.4236 25.5281 17.076 25.4259 16.7015C25.3236 16.327 25.3043 15.9347 25.3693 15.552C25.5826 14.2413 26.8146 13.3333 28.1426 13.3333H29.3333V8C29.3333 7.64638 29.1928 7.30724 28.9428 7.05719C28.6927 6.80714 28.3536 6.66666 28 6.66666ZM12 12C12.3536 12 12.6927 12.1405 12.9428 12.3905C13.1928 12.6406 13.3333 12.9797 13.3333 13.3333C13.3333 13.687 13.1928 14.0261 12.9428 14.2761C12.6927 14.5262 12.3536 14.6667 12 14.6667C11.6463 14.6667 11.3072 14.5262 11.0571 14.2761C10.8071 14.0261 10.6666 13.687 10.6666 13.3333C10.6666 12.9797 10.8071 12.6406 11.0571 12.3905C11.3072 12.1405 11.6463 12 12 12ZM10.9333 20.5333L18.9333 9.86666L21.0666 11.4667L13.0666 22.1333L10.9333 20.5333ZM20 20C19.6463 20 19.3072 19.8595 19.0571 19.6095C18.8071 19.3594 18.6666 19.0203 18.6666 18.6667C18.6666 18.313 18.8071 17.9739 19.0571 17.7239C19.3072 17.4738 19.6463 17.3333 20 17.3333C20.3536 17.3333 20.6927 17.4738 20.9428 17.7239C21.1928 17.9739 21.3333 18.313 21.3333 18.6667C21.3333 19.0203 21.1928 19.3594 20.9428 19.6095C20.6927 19.8595 20.3536 20 20 20Z" stroke="black" stroke-width="1.5"/>
</svg>
