<svg width="125" height="25" viewBox="0 0 125 25" fill="none" xmlns="http://www.w3.org/2000/svg">
<g clip-path="url(#clip0_8_460)">
<path d="M6.82103 21.8783L8.24747 15.7116L8.31531 15.4184L8.08787 15.2212L3.30327 11.0731L9.62649 10.5242L9.92655 10.4981L10.0438 10.2207L12.4999 4.40936L14.956 10.2207L15.0733 10.4981L15.3733 10.5242L21.6966 11.0731L16.912 15.2212L16.6845 15.4184L16.7524 15.7116L18.1788 21.8783L12.7582 18.6083L12.4999 18.4525L12.2417 18.6083L6.82103 21.8783Z" stroke="#B4B4B4"/>
<path d="M31.821 21.8783L33.2475 15.7116L33.3153 15.4184L33.0879 15.2212L28.3033 11.0731L34.6265 10.5242L34.9266 10.4981L35.0438 10.2207L37.4999 4.40936L39.956 10.2207L40.0733 10.4981L40.3733 10.5242L46.6966 11.0731L41.912 15.2212L41.6845 15.4184L41.7524 15.7116L43.1788 21.8783L37.7582 18.6083L37.4999 18.4525L37.2417 18.6083L31.821 21.8783Z" stroke="#B4B4B4"/>
<path d="M56.821 21.8783L58.2475 15.7116L58.3153 15.4184L58.0879 15.2212L53.3033 11.0731L59.6265 10.5242L59.9266 10.4981L60.0438 10.2207L62.4999 4.40936L64.956 10.2207L65.0733 10.4981L65.3733 10.5242L71.6966 11.0731L66.912 15.2212L66.6845 15.4184L66.7524 15.7116L68.1788 21.8783L62.7582 18.6083L62.4999 18.4525L62.2417 18.6083L56.821 21.8783Z" stroke="#B4B4B4"/>
<path d="M81.821 21.8783L83.2475 15.7116L83.3153 15.4184L83.0879 15.2212L78.3033 11.0731L84.6265 10.5242L84.9266 10.4981L85.0438 10.2207L87.4999 4.40936L89.956 10.2207L90.0733 10.4981L90.3733 10.5242L96.6966 11.0731L91.912 15.2212L91.6845 15.4184L91.7524 15.7116L93.1788 21.8783L87.7582 18.6083L87.4999 18.4525L87.2417 18.6083L81.821 21.8783Z" stroke="#B4B4B4"/>
<path d="M106.821 21.8783L108.247 15.7116L108.315 15.4184L108.088 15.2212L103.303 11.0731L109.626 10.5242L109.927 10.4981L110.044 10.2207L112.5 4.40936L114.956 10.2207L115.073 10.4981L115.373 10.5242L121.697 11.0731L116.912 15.2212L116.685 15.4184L116.752 15.7116L118.179 21.8783L112.758 18.6083L112.5 18.4525L112.242 18.6083L106.821 21.8783Z" stroke="#B4B4B4"/>
</g>
<defs>
<clipPath id="clip0_8_460">
<rect width="125" height="25" fill="white"/>
</clipPath>
</defs>
</svg>
