<svg width="32" height="32" viewBox="0 0 32 32" fill="none" xmlns="http://www.w3.org/2000/svg">
<path d="M6.22727 22.7045H4V6H18.4773V21.5909M6.22727 22.7045C6.22727 21.8185 6.57926 20.9687 7.2058 20.3422C7.83234 19.7156 8.68212 19.3636 9.56818 19.3636C10.4542 19.3636 11.304 19.7156 11.9306 20.3422C12.5571 20.9687 12.9091 21.8185 12.9091 22.7045M6.22727 22.7045C6.22727 23.5906 6.57926 24.4404 7.2058 25.0669C7.83234 25.6935 8.68212 26.0455 9.56818 26.0455C10.4542 26.0455 11.304 25.6935 11.9306 25.0669C12.5571 24.4404 12.9091 23.5906 12.9091 22.7045M18.4773 22.7045H12.9091M18.4773 22.7045C18.4773 21.8185 18.8293 20.9687 19.4558 20.3422C20.0823 19.7156 20.9321 19.3636 21.8182 19.3636C22.7042 19.3636 23.554 19.7156 24.1806 20.3422C24.8071 20.9687 25.1591 21.8185 25.1591 22.7045M18.4773 22.7045C18.4773 23.5906 18.8293 24.4404 19.4558 25.0669C20.0823 25.6935 20.9321 26.0455 21.8182 26.0455C22.7042 26.0455 23.554 25.6935 24.1806 25.0669C24.8071 24.4404 25.1591 23.5906 25.1591 22.7045M25.1591 22.7045H28.5V17.1364L24.0455 11.5682H18.4773" stroke="black" stroke-width="2"/>
</svg>
