<svg width="50" height="50" viewBox="0 0 50 50" fill="none" xmlns="http://www.w3.org/2000/svg">
<path d="M25.2709 33.9442L25.1364 34.0786L24.9885 33.9442C18.6012 28.1485 14.3788 24.3161 14.3788 20.43C14.3788 17.7406 16.3959 15.7235 19.0853 15.7235C20.7191 15.7235 22.3195 16.5606 23.2722 17.812C23.7289 18.412 24.3824 18.897 25.1364 18.897C25.8905 18.897 26.5439 18.412 27.0007 17.812C27.9534 16.5606 29.5537 15.7235 31.1876 15.7235C33.877 15.7235 35.894 17.7406 35.894 20.43C35.894 24.3161 31.6717 28.1485 25.2709 33.9442ZM31.1876 13.0341C28.8478 13.0341 26.6021 14.1233 25.1364 15.8311C23.6707 14.1233 21.4251 13.0341 19.0853 13.0341C14.9436 13.0341 11.6895 16.2748 11.6895 20.43C11.6895 25.4995 16.2614 29.6546 23.1866 35.9343L25.1364 37.7093L27.0862 35.9343C34.0114 29.6546 38.5834 25.4995 38.5834 20.43C38.5834 16.2748 35.3292 13.0341 31.1876 13.0341Z" fill="#B4B4B4"/>
<circle cx="25" cy="25" r="24" stroke="#B4B4B4" stroke-width="2"/>
</svg>
