<svg width="64" height="64" viewBox="0 0 64 64" fill="none" xmlns="http://www.w3.org/2000/svg">
<path d="M56 41.456C54.6053 41.456 53.2107 41.8587 52 42.6667C50.8155 43.4564 49.4237 43.8779 48 43.8779C46.5763 43.8779 45.1845 43.4564 44 42.6667C42.8155 41.8769 41.4237 41.4555 40 41.4555C38.5763 41.4555 37.1845 41.8769 36 42.6667C34.8155 43.4564 33.4237 43.8779 32 43.8779C30.5763 43.8779 29.1845 43.4564 28 42.6667C26.8155 41.8769 25.4237 41.4555 24 41.4555C22.5763 41.4555 21.1845 41.8769 20 42.6667C18.8155 43.4564 17.4237 43.8779 16 43.8779C14.5763 43.8779 13.1845 43.4564 12 42.6667C10.8156 41.8767 9.42368 41.4554 8 41.456M24 16V21.3333M32 16V21.3333M40 16V21.3333M24 8H24.0267M32 8H32.0267M40 8H40.0267M56 56V37.3333C56 35.9188 55.4381 34.5623 54.4379 33.5621C53.4377 32.5619 52.0812 32 50.6667 32H13.3333C11.9188 32 10.5623 32.5619 9.5621 33.5621C8.5619 34.5623 8 35.9188 8 37.3333V56H56ZM48 32V26.6667C48 25.2522 47.4381 23.8956 46.4379 22.8954C45.4377 21.8952 44.0812 21.3333 42.6667 21.3333H21.3333C19.9188 21.3333 18.5623 21.8952 17.5621 22.8954C16.5619 23.8956 16 25.2522 16 26.6667V32H48Z" stroke="#B4B4B4" stroke-width="2.5" stroke-linecap="round" stroke-linejoin="round"/>
</svg>
