<svg width="33" height="32" viewBox="0 0 33 32" fill="none" xmlns="http://www.w3.org/2000/svg">
<path d="M8.22769 29.1668C7.49852 29.1668 6.87409 28.9069 6.35439 28.3872C5.8347 27.8675 5.57529 27.2435 5.57617 26.5152V10.6062C5.57617 9.87699 5.83602 9.25256 6.35572 8.73286C6.87542 8.21316 7.49941 7.95376 8.22769 7.95464H10.8792C10.8792 6.49631 11.3985 5.24789 12.437 4.20938C13.4755 3.17087 14.7239 2.65161 16.1822 2.65161C17.6406 2.65161 18.889 3.17087 19.9275 4.20938C20.966 5.24789 21.4853 6.49631 21.4853 7.95464H24.1368C24.8659 7.95464 25.4904 8.21449 26.0101 8.73419C26.5298 9.25388 26.7892 9.87787 26.7883 10.6062V26.5152C26.7883 27.2444 26.5285 27.8688 26.0088 28.3885C25.4891 28.9082 24.8651 29.1676 24.1368 29.1668H8.22769ZM8.22769 26.5152H24.1368V10.6062H21.4853V13.2577C21.4853 13.6333 21.358 13.9484 21.1034 14.2029C20.8489 14.4575 20.5343 14.5843 20.1595 14.5834C19.7839 14.5834 19.4688 14.4562 19.2142 14.2016C18.9597 13.9471 18.8329 13.6324 18.8338 13.2577V10.6062H13.5307V13.2577C13.5307 13.6333 13.4034 13.9484 13.1489 14.2029C12.8944 14.4575 12.5797 14.5843 12.205 14.5834C11.8293 14.5834 11.5142 14.4562 11.2597 14.2016C11.0052 13.9471 10.8783 13.6324 10.8792 13.2577V10.6062H8.22769V26.5152ZM13.5307 7.95464H18.8338C18.8338 7.22548 18.5739 6.60104 18.0542 6.08135C17.5345 5.56165 16.9105 5.30224 16.1822 5.30313C15.4531 5.30313 14.8286 5.56297 14.3089 6.08267C13.7892 6.60237 13.5298 7.22636 13.5307 7.95464Z" fill="black"/>
</svg>
