<svg width="33" height="32" viewBox="0 0 33 32" fill="none" xmlns="http://www.w3.org/2000/svg">
<path d="M8.22751 29.1668C7.49834 29.1668 6.87391 28.9069 6.35421 28.3872C5.83451 27.8675 5.57511 27.2435 5.57599 26.5152V10.6062C5.57599 9.87699 5.83584 9.25256 6.35554 8.73286C6.87523 8.21316 7.49922 7.95376 8.22751 7.95464H10.879C10.879 6.49631 11.3983 5.24789 12.4368 4.20938C13.4753 3.17087 14.7237 2.65161 16.1821 2.65161C17.6404 2.65161 18.8888 3.17087 19.9273 4.20938C20.9658 5.24789 21.4851 6.49631 21.4851 7.95464H24.1366C24.8658 7.95464 25.4902 8.21449 26.0099 8.73419C26.5296 9.25388 26.789 9.87787 26.7881 10.6062V26.5152C26.7881 27.2444 26.5283 27.8688 26.0086 28.3885C25.4889 28.9082 24.8649 29.1676 24.1366 29.1668H8.22751ZM8.22751 26.5152H24.1366V10.6062H21.4851V13.2577C21.4851 13.6333 21.3578 13.9484 21.1033 14.2029C20.8487 14.4575 20.5341 14.5843 20.1593 14.5834C19.7837 14.5834 19.4686 14.4562 19.2141 14.2016C18.9595 13.9471 18.8327 13.6324 18.8336 13.2577V10.6062H13.5305V13.2577C13.5305 13.6333 13.4033 13.9484 13.1487 14.2029C12.8942 14.4575 12.5795 14.5843 12.2048 14.5834C11.8291 14.5834 11.5141 14.4562 11.2595 14.2016C11.005 13.9471 10.8781 13.6324 10.879 13.2577V10.6062H8.22751V26.5152ZM13.5305 7.95464H18.8336C18.8336 7.22548 18.5737 6.60104 18.054 6.08135C17.5343 5.56165 16.9103 5.30224 16.1821 5.30313C15.4529 5.30313 14.8285 5.56297 14.3088 6.08267C13.7891 6.60237 13.5297 7.22636 13.5305 7.95464Z" fill="black"/>
</svg>
