<svg width="33" height="32" viewBox="0 0 33 32" fill="none" xmlns="http://www.w3.org/2000/svg">
<path d="M8.22751 29.1667C7.49834 29.1667 6.87391 28.9068 6.35421 28.3871C5.83451 27.8674 5.57511 27.2434 5.57599 26.5152V10.6061C5.57599 9.8769 5.83584 9.25247 6.35554 8.73277C6.87523 8.21307 7.49922 7.95367 8.22751 7.95455H10.879C10.879 6.49622 11.3983 5.2478 12.4368 4.20928C13.4753 3.17077 14.7237 2.65152 16.1821 2.65152C17.6404 2.65152 18.8888 3.17077 19.9273 4.20928C20.9658 5.2478 21.4851 6.49622 21.4851 7.95455H24.1366C24.8658 7.95455 25.4902 8.2144 26.0099 8.7341C26.5296 9.25379 26.789 9.87778 26.7881 10.6061V26.5152C26.7881 27.2443 26.5283 27.8688 26.0086 28.3885C25.4889 28.9081 24.8649 29.1676 24.1366 29.1667H8.22751ZM8.22751 26.5152H24.1366V10.6061H21.4851V13.2576C21.4851 13.6332 21.3578 13.9483 21.1033 14.2028C20.8487 14.4574 20.5341 14.5842 20.1593 14.5833C19.7837 14.5833 19.4686 14.4561 19.2141 14.2015C18.9595 13.947 18.8327 13.6323 18.8336 13.2576V10.6061H13.5305V13.2576C13.5305 13.6332 13.4033 13.9483 13.1487 14.2028C12.8942 14.4574 12.5795 14.5842 12.2048 14.5833C11.8291 14.5833 11.5141 14.4561 11.2595 14.2015C11.005 13.947 10.8781 13.6323 10.879 13.2576V10.6061H8.22751V26.5152ZM13.5305 7.95455H18.8336C18.8336 7.22538 18.5737 6.60095 18.054 6.08125C17.5343 5.56156 16.9103 5.30215 16.1821 5.30304C15.4529 5.30304 14.8285 5.56288 14.3088 6.08258C13.7891 6.60228 13.5297 7.22627 13.5305 7.95455Z" fill="black"/>
</svg>
