<svg width="33" height="33" viewBox="0 0 33 33" fill="none" xmlns="http://www.w3.org/2000/svg">
<path d="M8.2272 29.3941C7.49803 29.3941 6.8736 29.1342 6.35391 28.6145C5.83421 28.0948 5.5748 27.4708 5.57569 26.7425V10.8335C5.57569 10.1043 5.83553 9.47985 6.35523 8.96016C6.87493 8.44046 7.49892 8.18105 8.2272 8.18194H10.8787C10.8787 6.7236 11.398 5.47518 12.4365 4.43667C13.475 3.39816 14.7234 2.87891 16.1817 2.87891C17.6401 2.87891 18.8885 3.39816 19.927 4.43667C20.9655 5.47518 21.4848 6.7236 21.4848 8.18194H24.1363C24.8655 8.18194 25.4899 8.44178 26.0096 8.96148C26.5293 9.48118 26.7887 10.1052 26.7878 10.8335V26.7425C26.7878 27.4717 26.528 28.0961 26.0083 28.6158C25.4886 29.1355 24.8646 29.3949 24.1363 29.3941H8.2272ZM8.2272 26.7425H24.1363V10.8335H21.4848V13.485C21.4848 13.8606 21.3575 14.1757 21.103 14.4302C20.8484 14.6848 20.5338 14.8116 20.159 14.8107C19.7834 14.8107 19.4683 14.6835 19.2138 14.4289C18.9592 14.1744 18.8324 13.8597 18.8333 13.485V10.8335H13.5302V13.485C13.5302 13.8606 13.403 14.1757 13.1484 14.4302C12.8939 14.6848 12.5792 14.8116 12.2045 14.8107C11.8288 14.8107 11.5138 14.6835 11.2592 14.4289C11.0047 14.1744 10.8778 13.8597 10.8787 13.485V10.8335H8.2272V26.7425ZM13.5302 8.18194H18.8333C18.8333 7.45277 18.5734 6.82834 18.0537 6.30864C17.534 5.78894 16.91 5.52954 16.1817 5.53042C15.4526 5.53042 14.8281 5.79027 14.3085 6.30997C13.7888 6.82966 13.5293 7.45365 13.5302 8.18194Z" fill="black"/>
</svg>
