<svg width="33" height="32" viewBox="0 0 33 32" fill="none" xmlns="http://www.w3.org/2000/svg">
<path d="M8.22745 29.1666C7.49828 29.1666 6.87385 28.9068 6.35415 28.3871C5.83445 27.8674 5.57505 27.2434 5.57593 26.5151V10.606C5.57593 9.87687 5.83578 9.25244 6.35548 8.73274C6.87517 8.21304 7.49916 7.95364 8.22745 7.95452H10.879C10.879 6.49619 11.3982 5.24776 12.4367 4.20925C13.4752 3.17074 14.7237 2.65149 16.182 2.65149C17.6403 2.65149 18.8887 3.17074 19.9273 4.20925C20.9658 5.24776 21.485 6.49619 21.485 7.95452H24.1365C24.8657 7.95452 25.4901 8.21437 26.0098 8.73407C26.5295 9.25376 26.7889 9.87775 26.7881 10.606V26.5151C26.7881 27.2443 26.5282 27.8687 26.0085 28.3884C25.4888 28.9081 24.8648 29.1675 24.1365 29.1666H8.22745ZM8.22745 26.5151H24.1365V10.606H21.485V13.2576C21.485 13.6332 21.3577 13.9483 21.1032 14.2028C20.8487 14.4574 20.534 14.5842 20.1593 14.5833C19.7836 14.5833 19.4685 14.456 19.214 14.2015C18.9595 13.9469 18.8326 13.6323 18.8335 13.2576V10.606H13.5305V13.2576C13.5305 13.6332 13.4032 13.9483 13.1487 14.2028C12.8941 14.4574 12.5795 14.5842 12.2047 14.5833C11.8291 14.5833 11.514 14.456 11.2595 14.2015C11.0049 13.9469 10.8781 13.6323 10.879 13.2576V10.606H8.22745V26.5151ZM13.5305 7.95452H18.8335C18.8335 7.22535 18.5737 6.60092 18.054 6.08122C17.5343 5.56153 16.9103 5.30212 16.182 5.303C15.4528 5.303 14.8284 5.56285 14.3087 6.08255C13.789 6.60225 13.5296 7.22624 13.5305 7.95452Z" fill="black"/>
</svg>
