<svg width="32" height="32" viewBox="0 0 32 32" fill="none" xmlns="http://www.w3.org/2000/svg">
<path d="M7.9545 29.1666C7.22533 29.1666 6.6009 28.9068 6.0812 28.3871C5.5615 27.8674 5.3021 27.2434 5.30298 26.5151V10.606C5.30298 9.87687 5.56283 9.25244 6.08253 8.73274C6.60222 8.21304 7.22621 7.95364 7.9545 7.95452H10.606C10.606 6.49619 11.1253 5.24776 12.1638 4.20925C13.2023 3.17074 14.4507 2.65149 15.909 2.65149C17.3674 2.65149 18.6158 3.17074 19.6543 4.20925C20.6928 5.24776 21.2121 6.49619 21.2121 7.95452H23.8636C24.5928 7.95452 25.2172 8.21437 25.7369 8.73406C26.2566 9.25376 26.516 9.87775 26.5151 10.606V26.5151C26.5151 27.2443 26.2553 27.8687 25.7356 28.3884C25.2159 28.9081 24.5919 29.1675 23.8636 29.1666H7.9545ZM7.9545 26.5151H23.8636V10.606H21.2121V13.2576C21.2121 13.6332 21.0848 13.9483 20.8303 14.2028C20.5757 14.4574 20.2611 14.5842 19.8863 14.5833C19.5107 14.5833 19.1956 14.456 18.9411 14.2015C18.6865 13.9469 18.5597 13.6323 18.5606 13.2576V10.606H13.2575V13.2576C13.2575 13.6332 13.1303 13.9483 12.8757 14.2028C12.6212 14.4574 12.3065 14.5842 11.9318 14.5833C11.5561 14.5833 11.241 14.456 10.9865 14.2015C10.732 13.9469 10.6051 13.6323 10.606 13.2576V10.606H7.9545V26.5151ZM13.2575 7.95452H18.5606C18.5606 7.22535 18.3007 6.60092 17.781 6.08122C17.2613 5.56153 16.6373 5.30212 15.909 5.303C15.1799 5.303 14.5554 5.56285 14.0357 6.08255C13.5161 6.60225 13.2566 7.22624 13.2575 7.95452Z" fill="white"/>
</svg>
