<svg width="33" height="33" viewBox="0 0 33 33" fill="none" xmlns="http://www.w3.org/2000/svg">
<path d="M8.22769 29.3941C7.49852 29.3941 6.87409 29.1342 6.35439 28.6145C5.8347 28.0948 5.57529 27.4708 5.57617 26.7425V10.8335C5.57617 10.1043 5.83602 9.47985 6.35572 8.96016C6.87542 8.44046 7.49941 8.18105 8.22769 8.18194H10.8792C10.8792 6.7236 11.3985 5.47518 12.437 4.43667C13.4755 3.39816 14.7239 2.87891 16.1822 2.87891C17.6406 2.87891 18.889 3.39816 19.9275 4.43667C20.966 5.47518 21.4853 6.7236 21.4853 8.18194H24.1368C24.8659 8.18194 25.4904 8.44178 26.0101 8.96148C26.5298 9.48118 26.7892 10.1052 26.7883 10.8335V26.7425C26.7883 27.4717 26.5285 28.0961 26.0088 28.6158C25.4891 29.1355 24.8651 29.3949 24.1368 29.3941H8.22769ZM8.22769 26.7425H24.1368V10.8335H21.4853V13.485C21.4853 13.8606 21.358 14.1757 21.1034 14.4302C20.8489 14.6848 20.5343 14.8116 20.1595 14.8107C19.7839 14.8107 19.4688 14.6835 19.2142 14.4289C18.9597 14.1744 18.8329 13.8597 18.8338 13.485V10.8335H13.5307V13.485C13.5307 13.8606 13.4034 14.1757 13.1489 14.4302C12.8944 14.6848 12.5797 14.8116 12.205 14.8107C11.8293 14.8107 11.5142 14.6835 11.2597 14.4289C11.0052 14.1744 10.8783 13.8597 10.8792 13.485V10.8335H8.22769V26.7425ZM13.5307 8.18194H18.8338C18.8338 7.45277 18.5739 6.82834 18.0542 6.30864C17.5345 5.78894 16.9105 5.52954 16.1822 5.53042C15.4531 5.53042 14.8286 5.79027 14.3089 6.30997C13.7892 6.82966 13.5298 7.45365 13.5307 8.18194Z" fill="black"/>
</svg>
