<svg width="33" height="32" viewBox="0 0 33 32" fill="none" xmlns="http://www.w3.org/2000/svg">
<path d="M8.22745 29.1668C7.49828 29.1668 6.87385 28.9069 6.35415 28.3872C5.83445 27.8675 5.57505 27.2435 5.57593 26.5152V10.6062C5.57593 9.87699 5.83578 9.25256 6.35548 8.73286C6.87517 8.21316 7.49916 7.95376 8.22745 7.95464H10.879C10.879 6.49631 11.3982 5.24789 12.4367 4.20938C13.4752 3.17087 14.7237 2.65161 16.182 2.65161C17.6403 2.65161 18.8887 3.17087 19.9273 4.20938C20.9658 5.24789 21.485 6.49631 21.485 7.95464H24.1365C24.8657 7.95464 25.4901 8.21449 26.0098 8.73419C26.5295 9.25388 26.7889 9.87787 26.7881 10.6062V26.5152C26.7881 27.2444 26.5282 27.8688 26.0085 28.3885C25.4888 28.9082 24.8648 29.1676 24.1365 29.1668H8.22745ZM8.22745 26.5152H24.1365V10.6062H21.485V13.2577C21.485 13.6333 21.3577 13.9484 21.1032 14.2029C20.8487 14.4575 20.534 14.5843 20.1593 14.5834C19.7836 14.5834 19.4685 14.4562 19.214 14.2016C18.9595 13.9471 18.8326 13.6324 18.8335 13.2577V10.6062H13.5305V13.2577C13.5305 13.6333 13.4032 13.9484 13.1487 14.2029C12.8941 14.4575 12.5795 14.5843 12.2047 14.5834C11.8291 14.5834 11.514 14.4562 11.2595 14.2016C11.0049 13.9471 10.8781 13.6324 10.879 13.2577V10.6062H8.22745V26.5152ZM13.5305 7.95464H18.8335C18.8335 7.22548 18.5737 6.60104 18.054 6.08135C17.5343 5.56165 16.9103 5.30224 16.182 5.30313C15.4528 5.30313 14.8284 5.56297 14.3087 6.08267C13.789 6.60237 13.5296 7.22636 13.5305 7.95464Z" fill="black"/>
</svg>
