<svg width="33" height="33" viewBox="0 0 33 33" fill="none" xmlns="http://www.w3.org/2000/svg">
<path d="M16.2709 24.9441L16.1364 25.0786L15.9885 24.9441C9.6012 19.1485 5.37885 15.3161 5.37885 11.4299C5.37885 8.7405 7.39589 6.72345 10.0853 6.72345C11.7191 6.72345 13.3195 7.56049 14.2722 8.81192C14.7289 9.41189 15.3824 9.89694 16.1364 9.89694V9.89694C16.8905 9.89694 17.5439 9.41189 18.0007 8.81192C18.9534 7.56049 20.5537 6.72345 22.1876 6.72345C24.877 6.72345 26.894 8.7405 26.894 11.4299C26.894 15.3161 22.6717 19.1485 16.2709 24.9441ZM22.1876 4.03406C19.8478 4.03406 17.6021 5.12326 16.1364 6.83103C14.6707 5.12326 12.4251 4.03406 10.0853 4.03406C5.94362 4.03406 2.68945 7.27478 2.68945 11.4299C2.68945 16.4994 7.26142 20.6545 14.1866 26.9342L16.1364 28.7092L18.0862 26.9342C25.0114 20.6545 29.5834 16.4994 29.5834 11.4299C29.5834 7.27478 26.3292 4.03406 22.1876 4.03406Z" fill="#B4B4B4"/>
</svg>
