<svg width="33" height="33" viewBox="0 0 33 33" fill="none" xmlns="http://www.w3.org/2000/svg">
<path d="M16.2708 24.9442L16.1364 25.0787L15.9884 24.9442C9.60114 19.1486 5.37879 15.3162 5.37879 11.43C5.37879 8.74062 7.39583 6.72357 10.0852 6.72357C11.7191 6.72357 13.3194 7.56062 14.2721 8.81204C14.7288 9.41202 15.3823 9.89706 16.1364 9.89706C16.8904 9.89706 17.5439 9.41202 18.0006 8.81204C18.9533 7.56062 20.5537 6.72357 22.1875 6.72357C24.8769 6.72357 26.8939 8.74062 26.8939 11.43C26.8939 15.3162 22.6716 19.1486 16.2708 24.9442ZM22.1875 4.03418C19.8477 4.03418 17.6021 5.12338 16.1364 6.83115C14.6706 5.12338 12.425 4.03418 10.0852 4.03418C5.94356 4.03418 2.68939 7.2749 2.68939 11.43C2.68939 16.4995 7.26136 20.6546 14.1866 26.9344L16.1364 28.7094L18.0862 26.9344C25.0114 20.6546 29.5833 16.4995 29.5833 11.43C29.5833 7.2749 26.3292 4.03418 22.1875 4.03418Z" fill="black"/>
</svg>
