<svg width="33" height="33" viewBox="0 0 33 33" fill="none" xmlns="http://www.w3.org/2000/svg">
<path d="M16.2709 24.9442L16.1364 25.0787L15.9885 24.9442C9.6012 19.1486 5.37885 15.3162 5.37885 11.43C5.37885 8.74062 7.39589 6.72357 10.0853 6.72357C11.7191 6.72357 13.3195 7.56062 14.2722 8.81204C14.7289 9.41202 15.3824 9.89706 16.1364 9.89706C16.8905 9.89706 17.5439 9.41202 18.0007 8.81204C18.9534 7.56062 20.5537 6.72357 22.1876 6.72357C24.877 6.72357 26.894 8.74062 26.894 11.43C26.894 15.3162 22.6717 19.1486 16.2709 24.9442ZM22.1876 4.03418C19.8478 4.03418 17.6021 5.12338 16.1364 6.83115C14.6707 5.12338 12.4251 4.03418 10.0853 4.03418C5.94362 4.03418 2.68945 7.2749 2.68945 11.43C2.68945 16.4995 7.26142 20.6546 14.1866 26.9344L16.1364 28.7094L18.0862 26.9344C25.0114 20.6546 29.5834 16.4995 29.5834 11.43C29.5834 7.2749 26.3292 4.03418 22.1876 4.03418Z" fill="#B4B4B4"/>
</svg>
