<svg width="33" height="33" viewBox="0 0 33 33" fill="none" xmlns="http://www.w3.org/2000/svg">
<path d="M16.2709 24.9442L16.1364 25.0786L15.9885 24.9442C9.6012 19.1485 5.37885 15.3161 5.37885 11.43C5.37885 8.74056 7.39589 6.72351 10.0853 6.72351C11.7191 6.72351 13.3195 7.56055 14.2722 8.81198C14.7289 9.41196 15.3824 9.897 16.1364 9.897C16.8905 9.897 17.5439 9.41196 18.0007 8.81198C18.9534 7.56055 20.5537 6.72351 22.1876 6.72351C24.877 6.72351 26.894 8.74056 26.894 11.43C26.894 15.3161 22.6717 19.1485 16.2709 24.9442ZM22.1876 4.03412C19.8478 4.03412 17.6021 5.12332 16.1364 6.83109C14.6707 5.12332 12.4251 4.03412 10.0853 4.03412C5.94362 4.03412 2.68945 7.27484 2.68945 11.43C2.68945 16.4995 7.26142 20.6546 14.1866 26.9343L16.1364 28.7093L18.0862 26.9343C25.0114 20.6546 29.5834 16.4995 29.5834 11.43C29.5834 7.27484 26.3292 4.03412 22.1876 4.03412Z" fill="black"/>
</svg>
