<svg width="33" height="33" viewBox="0 0 33 33" fill="none" xmlns="http://www.w3.org/2000/svg">
<path d="M16.2708 24.9442L16.1364 25.0786L15.9884 24.9442C9.60114 19.1485 5.37879 15.3161 5.37879 11.43C5.37879 8.74056 7.39583 6.72351 10.0852 6.72351C11.7191 6.72351 13.3194 7.56055 14.2721 8.81198C14.7288 9.41196 15.3823 9.897 16.1364 9.897C16.8904 9.897 17.5439 9.41196 18.0006 8.81198C18.9533 7.56055 20.5537 6.72351 22.1875 6.72351C24.8769 6.72351 26.8939 8.74056 26.8939 11.43C26.8939 15.3161 22.6716 19.1485 16.2708 24.9442ZM22.1875 4.03412C19.8477 4.03412 17.6021 5.12332 16.1364 6.83109C14.6706 5.12332 12.425 4.03412 10.0852 4.03412C5.94356 4.03412 2.68939 7.27484 2.68939 11.43C2.68939 16.4995 7.26136 20.6546 14.1866 26.9343L16.1364 28.7093L18.0862 26.9343C25.0114 20.6546 29.5833 16.4995 29.5833 11.43C29.5833 7.27484 26.3292 4.03412 22.1875 4.03412Z" fill="#B4B4B4"/>
</svg>
