<svg width="33" height="33" viewBox="0 0 33 33" fill="none" xmlns="http://www.w3.org/2000/svg">
<path d="M16.2709 24.9441L16.1364 25.0786L15.9885 24.9441C9.6012 19.1485 5.37885 15.3161 5.37885 11.4299C5.37885 8.74053 7.39589 6.72348 10.0853 6.72348C11.7191 6.72348 13.3195 7.56052 14.2722 8.81195C14.7289 9.41192 15.3824 9.89697 16.1364 9.89697C16.8905 9.89697 17.5439 9.41192 18.0007 8.81195C18.9534 7.56052 20.5537 6.72348 22.1876 6.72348C24.877 6.72348 26.894 8.74053 26.894 11.4299C26.894 15.3161 22.6717 19.1485 16.2709 24.9441ZM22.1876 4.03409C19.8478 4.03409 17.6021 5.12329 16.1364 6.83106C14.6707 5.12329 12.4251 4.03409 10.0853 4.03409C5.94362 4.03409 2.68945 7.27481 2.68945 11.4299C2.68945 16.4994 7.26142 20.6545 14.1866 26.9343L16.1364 28.7093L18.0862 26.9343C25.0114 20.6545 29.5834 16.4994 29.5834 11.4299C29.5834 7.27481 26.3292 4.03409 22.1876 4.03409Z" fill="black"/>
</svg>
