<svg width="33" height="33" viewBox="0 0 33 33" fill="none" xmlns="http://www.w3.org/2000/svg">
<path d="M16.2708 24.9441L16.1364 25.0786L15.9884 24.9441C9.60114 19.1485 5.37879 15.3161 5.37879 11.4299C5.37879 8.74053 7.39583 6.72348 10.0852 6.72348C11.7191 6.72348 13.3194 7.56052 14.2721 8.81195C14.7288 9.41192 15.3823 9.89697 16.1364 9.89697C16.8904 9.89697 17.5439 9.41192 18.0006 8.81195C18.9533 7.56052 20.5537 6.72348 22.1875 6.72348C24.8769 6.72348 26.8939 8.74053 26.8939 11.4299C26.8939 15.3161 22.6716 19.1485 16.2708 24.9441ZM22.1875 4.03409C19.8477 4.03409 17.6021 5.12329 16.1364 6.83106C14.6706 5.12329 12.425 4.03409 10.0852 4.03409C5.94356 4.03409 2.68939 7.27481 2.68939 11.4299C2.68939 16.4994 7.26136 20.6545 14.1866 26.9343L16.1364 28.7093L18.0862 26.9343C25.0114 20.6545 29.5833 16.4994 29.5833 11.4299C29.5833 7.27481 26.3292 4.03409 22.1875 4.03409Z" fill="black"/>
</svg>
