<svg width="64" height="64" viewBox="0 0 64 64" fill="none" xmlns="http://www.w3.org/2000/svg">
<mask id="path-1-outside-1_3_959" maskUnits="userSpaceOnUse" x="2.01514" y="4.01514" width="54" height="52" fill="black">
<rect fill="white" x="2.01514" y="4.01514" width="54" height="52"/>
<path d="M54.535 40.4825C54.3924 40.3918 54.229 40.3386 54.0603 40.3281C53.8915 40.3177 53.7228 40.3501 53.57 40.4225C52.6256 40.8703 51.5805 41.0635 50.5384 40.9832C49.4962 40.9028 48.4932 40.5515 47.6285 39.9643C46.7639 39.377 46.0677 38.574 45.6088 37.6349C45.15 36.6957 44.9444 35.653 45.0125 34.61C45.076 33.633 45.3777 32.6863 45.8912 31.8526C46.4047 31.0189 47.1144 30.3236 47.9584 29.8272C48.8024 29.3309 49.755 29.0486 50.7332 29.0051C51.7113 28.9616 52.6853 29.1581 53.57 29.5775C53.7224 29.6501 53.8907 29.6829 54.0592 29.6729C54.2277 29.6629 54.391 29.6105 54.5337 29.5204C54.6765 29.4303 54.7941 29.3055 54.8757 29.1577C54.9572 29.0099 55 28.8438 55 28.675V18C55 17.2044 54.684 16.4413 54.1213 15.8787C53.5587 15.3161 52.7957 15 52 15H41.75C42.0254 13.9249 42.074 12.8042 41.8929 11.7093C41.7117 10.6144 41.3047 9.56908 40.6978 8.63993C40.0908 7.71078 39.2971 6.91809 38.3673 6.31225C37.4374 5.70641 36.3916 5.30068 35.2964 5.12085C34.2013 4.94103 33.0807 4.99103 32.0059 5.2677C30.9311 5.54436 29.9256 6.04164 29.0534 6.72789C28.1812 7.41415 27.4613 8.27439 26.9395 9.25391C26.4177 10.2334 26.1054 11.3108 26.0225 12.4175C25.96 13.285 26.0368 14.1569 26.25 15H16C15.2044 15 14.4413 15.3161 13.8787 15.8787C13.3161 16.4413 13 17.2044 13 18V27.25C11.9249 26.9747 10.8042 26.926 9.70929 27.1072C8.61435 27.2883 7.56908 27.6953 6.63993 28.3023C5.71078 28.9093 4.91809 29.7029 4.31225 30.6328C3.70641 31.5627 3.30068 32.6085 3.12085 33.7036C2.94103 34.7988 2.99103 35.9194 3.2677 36.9942C3.54436 38.069 4.04164 39.0744 4.72789 39.9467C5.41415 40.8189 6.27439 41.5388 7.25391 42.0606C8.23343 42.5823 9.3108 42.8946 10.4175 42.9775C11.285 43.0414 12.1571 42.9645 13 42.75V52C13 52.7957 13.3161 53.5587 13.8787 54.1213C14.4413 54.684 15.2044 55 16 55H52C52.7957 55 53.5587 54.684 54.1213 54.1213C54.684 53.5587 55 52.7957 55 52V41.3275C55.0001 41.1589 54.9574 40.993 54.8761 40.8453C54.7948 40.6975 54.6775 40.5727 54.535 40.4825ZM53 52C53 52.2652 52.8947 52.5196 52.7071 52.7071C52.5196 52.8947 52.2652 53 52 53H16C15.7348 53 15.4805 52.8947 15.2929 52.7071C15.1054 52.5196 15 52.2652 15 52V41.3275C15.0001 41.1589 14.9574 40.993 14.8761 40.8453C14.7948 40.6975 14.6775 40.5727 14.535 40.4825C14.3927 40.3922 14.2298 40.3393 14.0615 40.3288C13.8932 40.3183 13.725 40.3506 13.5725 40.4225C12.6877 40.8425 11.7135 41.0394 10.735 40.9962C9.75647 40.9529 8.80344 40.6708 7.9591 40.1744C7.11476 39.678 6.40478 38.9824 5.89115 38.1484C5.37752 37.3145 5.07587 36.3674 5.01253 35.39C4.9442 34.3467 5.1497 33.3036 5.60866 32.3641C6.06763 31.4247 6.76413 30.6215 7.62913 30.0341C8.49414 29.4468 9.49761 29.0956 10.5401 29.0155C11.5826 28.9354 12.628 29.1292 13.5725 29.5775C13.7248 29.6495 13.8929 29.6819 14.061 29.6716C14.2292 29.6614 14.392 29.6088 14.5344 29.5188C14.6768 29.4287 14.7942 29.3042 14.8756 29.1567C14.957 29.0092 14.9998 28.8435 15 28.675V18C15 17.7348 15.1054 17.4805 15.2929 17.2929C15.4805 17.1054 15.7348 17 16 17H27.6725C27.8412 17.0002 28.0072 16.9577 28.155 16.8765C28.3029 16.7952 28.4278 16.6779 28.5181 16.5355C28.6084 16.393 28.6612 16.23 28.6716 16.0616C28.682 15.8933 28.6496 15.725 28.5775 15.5725C28.1576 14.6877 27.9606 13.7135 28.0039 12.735C28.0472 11.7565 28.3293 10.8034 28.8257 9.9591C29.3221 9.11476 30.0176 8.40478 30.8516 7.89115C31.6856 7.37752 32.6326 7.07587 33.61 7.01253C34.6534 6.9442 35.6964 7.1497 36.6359 7.60866C37.5754 8.06763 38.3786 8.76413 38.9659 9.62913C39.5533 10.4941 39.9044 11.4976 39.9845 12.5401C40.0646 13.5826 39.8709 14.628 39.4225 15.5725C39.3504 15.725 39.3181 15.8933 39.3284 16.0616C39.3388 16.23 39.3916 16.393 39.482 16.5355C39.5723 16.6779 39.6972 16.7952 39.845 16.8765C39.9929 16.9577 40.1588 17.0002 40.3275 17H52C52.2652 17 52.5196 17.1054 52.7071 17.2929C52.8947 17.4805 53 17.7348 53 18V27.25C52.1573 27.0342 51.2854 26.9549 50.4175 27.015C49.3149 27.1036 48.2426 27.4198 47.2684 27.9438C46.2942 28.4677 45.4393 29.1881 44.7576 30.0592C44.0759 30.9303 43.5822 31.9334 43.3079 33.005C43.0335 34.0766 42.9843 35.1935 43.1635 36.285C43.3426 37.3766 43.7462 38.4191 44.3487 39.3468C44.9512 40.2745 45.7396 41.0672 46.664 41.6747C47.5884 42.2822 48.6287 42.6915 49.7193 42.8766C50.8098 43.0617 51.9269 43.0186 53 42.75V52Z"/>
</mask>
<path d="M54.535 40.4825C54.3924 40.3918 54.229 40.3386 54.0603 40.3281C53.8915 40.3177 53.7228 40.3501 53.57 40.4225C52.6256 40.8703 51.5805 41.0635 50.5384 40.9832C49.4962 40.9028 48.4932 40.5515 47.6285 39.9643C46.7639 39.377 46.0677 38.574 45.6088 37.6349C45.15 36.6957 44.9444 35.653 45.0125 34.61C45.076 33.633 45.3777 32.6863 45.8912 31.8526C46.4047 31.0189 47.1144 30.3236 47.9584 29.8272C48.8024 29.3309 49.755 29.0486 50.7332 29.0051C51.7113 28.9616 52.6853 29.1581 53.57 29.5775C53.7224 29.6501 53.8907 29.6829 54.0592 29.6729C54.2277 29.6629 54.391 29.6105 54.5337 29.5204C54.6765 29.4303 54.7941 29.3055 54.8757 29.1577C54.9572 29.0099 55 28.8438 55 28.675V18C55 17.2044 54.684 16.4413 54.1213 15.8787C53.5587 15.3161 52.7957 15 52 15H41.75C42.0254 13.9249 42.074 12.8042 41.8929 11.7093C41.7117 10.6144 41.3047 9.56908 40.6978 8.63993C40.0908 7.71078 39.2971 6.91809 38.3673 6.31225C37.4374 5.70641 36.3916 5.30068 35.2964 5.12085C34.2013 4.94103 33.0807 4.99103 32.0059 5.2677C30.9311 5.54436 29.9256 6.04164 29.0534 6.72789C28.1812 7.41415 27.4613 8.27439 26.9395 9.25391C26.4177 10.2334 26.1054 11.3108 26.0225 12.4175C25.96 13.285 26.0368 14.1569 26.25 15H16C15.2044 15 14.4413 15.3161 13.8787 15.8787C13.3161 16.4413 13 17.2044 13 18V27.25C11.9249 26.9747 10.8042 26.926 9.70929 27.1072C8.61435 27.2883 7.56908 27.6953 6.63993 28.3023C5.71078 28.9093 4.91809 29.7029 4.31225 30.6328C3.70641 31.5627 3.30068 32.6085 3.12085 33.7036C2.94103 34.7988 2.99103 35.9194 3.2677 36.9942C3.54436 38.069 4.04164 39.0744 4.72789 39.9467C5.41415 40.8189 6.27439 41.5388 7.25391 42.0606C8.23343 42.5823 9.3108 42.8946 10.4175 42.9775C11.285 43.0414 12.1571 42.9645 13 42.75V52C13 52.7957 13.3161 53.5587 13.8787 54.1213C14.4413 54.684 15.2044 55 16 55H52C52.7957 55 53.5587 54.684 54.1213 54.1213C54.684 53.5587 55 52.7957 55 52V41.3275C55.0001 41.1589 54.9574 40.993 54.8761 40.8453C54.7948 40.6975 54.6775 40.5727 54.535 40.4825ZM53 52C53 52.2652 52.8947 52.5196 52.7071 52.7071C52.5196 52.8947 52.2652 53 52 53H16C15.7348 53 15.4805 52.8947 15.2929 52.7071C15.1054 52.5196 15 52.2652 15 52V41.3275C15.0001 41.1589 14.9574 40.993 14.8761 40.8453C14.7948 40.6975 14.6775 40.5727 14.535 40.4825C14.3927 40.3922 14.2298 40.3393 14.0615 40.3288C13.8932 40.3183 13.725 40.3506 13.5725 40.4225C12.6877 40.8425 11.7135 41.0394 10.735 40.9962C9.75647 40.9529 8.80344 40.6708 7.9591 40.1744C7.11476 39.678 6.40478 38.9824 5.89115 38.1484C5.37752 37.3145 5.07587 36.3674 5.01253 35.39C4.9442 34.3467 5.1497 33.3036 5.60866 32.3641C6.06763 31.4247 6.76413 30.6215 7.62913 30.0341C8.49414 29.4468 9.49761 29.0956 10.5401 29.0155C11.5826 28.9354 12.628 29.1292 13.5725 29.5775C13.7248 29.6495 13.8929 29.6819 14.061 29.6716C14.2292 29.6614 14.392 29.6088 14.5344 29.5188C14.6768 29.4287 14.7942 29.3042 14.8756 29.1567C14.957 29.0092 14.9998 28.8435 15 28.675V18C15 17.7348 15.1054 17.4805 15.2929 17.2929C15.4805 17.1054 15.7348 17 16 17H27.6725C27.8412 17.0002 28.0072 16.9577 28.155 16.8765C28.3029 16.7952 28.4278 16.6779 28.5181 16.5355C28.6084 16.393 28.6612 16.23 28.6716 16.0616C28.682 15.8933 28.6496 15.725 28.5775 15.5725C28.1576 14.6877 27.9606 13.7135 28.0039 12.735C28.0472 11.7565 28.3293 10.8034 28.8257 9.9591C29.3221 9.11476 30.0176 8.40478 30.8516 7.89115C31.6856 7.37752 32.6326 7.07587 33.61 7.01253C34.6534 6.9442 35.6964 7.1497 36.6359 7.60866C37.5754 8.06763 38.3786 8.76413 38.9659 9.62913C39.5533 10.4941 39.9044 11.4976 39.9845 12.5401C40.0646 13.5826 39.8709 14.628 39.4225 15.5725C39.3504 15.725 39.3181 15.8933 39.3284 16.0616C39.3388 16.23 39.3916 16.393 39.482 16.5355C39.5723 16.6779 39.6972 16.7952 39.845 16.8765C39.9929 16.9577 40.1588 17.0002 40.3275 17H52C52.2652 17 52.5196 17.1054 52.7071 17.2929C52.8947 17.4805 53 17.7348 53 18V27.25C52.1573 27.0342 51.2854 26.9549 50.4175 27.015C49.3149 27.1036 48.2426 27.4198 47.2684 27.9438C46.2942 28.4677 45.4393 29.1881 44.7576 30.0592C44.0759 30.9303 43.5822 31.9334 43.3079 33.005C43.0335 34.0766 42.9843 35.1935 43.1635 36.285C43.3426 37.3766 43.7462 38.4191 44.3487 39.3468C44.9512 40.2745 45.7396 41.0672 46.664 41.6747C47.5884 42.2822 48.6287 42.6915 49.7193 42.8766C50.8098 43.0617 51.9269 43.0186 53 42.75V52Z" fill="#B4B4B4"/>
<path d="M54.535 40.4825C54.3924 40.3918 54.229 40.3386 54.0603 40.3281C53.8915 40.3177 53.7228 40.3501 53.57 40.4225C52.6256 40.8703 51.5805 41.0635 50.5384 40.9832C49.4962 40.9028 48.4932 40.5515 47.6285 39.9643C46.7639 39.377 46.0677 38.574 45.6088 37.6349C45.15 36.6957 44.9444 35.653 45.0125 34.61C45.076 33.633 45.3777 32.6863 45.8912 31.8526C46.4047 31.0189 47.1144 30.3236 47.9584 29.8272C48.8024 29.3309 49.755 29.0486 50.7332 29.0051C51.7113 28.9616 52.6853 29.1581 53.57 29.5775C53.7224 29.6501 53.8907 29.6829 54.0592 29.6729C54.2277 29.6629 54.391 29.6105 54.5337 29.5204C54.6765 29.4303 54.7941 29.3055 54.8757 29.1577C54.9572 29.0099 55 28.8438 55 28.675V18C55 17.2044 54.684 16.4413 54.1213 15.8787C53.5587 15.3161 52.7957 15 52 15H41.75C42.0254 13.9249 42.074 12.8042 41.8929 11.7093C41.7117 10.6144 41.3047 9.56908 40.6978 8.63993C40.0908 7.71078 39.2971 6.91809 38.3673 6.31225C37.4374 5.70641 36.3916 5.30068 35.2964 5.12085C34.2013 4.94103 33.0807 4.99103 32.0059 5.2677C30.9311 5.54436 29.9256 6.04164 29.0534 6.72789C28.1812 7.41415 27.4613 8.27439 26.9395 9.25391C26.4177 10.2334 26.1054 11.3108 26.0225 12.4175C25.96 13.285 26.0368 14.1569 26.25 15H16C15.2044 15 14.4413 15.3161 13.8787 15.8787C13.3161 16.4413 13 17.2044 13 18V27.25C11.9249 26.9747 10.8042 26.926 9.70929 27.1072C8.61435 27.2883 7.56908 27.6953 6.63993 28.3023C5.71078 28.9093 4.91809 29.7029 4.31225 30.6328C3.70641 31.5627 3.30068 32.6085 3.12085 33.7036C2.94103 34.7988 2.99103 35.9194 3.2677 36.9942C3.54436 38.069 4.04164 39.0744 4.72789 39.9467C5.41415 40.8189 6.27439 41.5388 7.25391 42.0606C8.23343 42.5823 9.3108 42.8946 10.4175 42.9775C11.285 43.0414 12.1571 42.9645 13 42.75V52C13 52.7957 13.3161 53.5587 13.8787 54.1213C14.4413 54.684 15.2044 55 16 55H52C52.7957 55 53.5587 54.684 54.1213 54.1213C54.684 53.5587 55 52.7957 55 52V41.3275C55.0001 41.1589 54.9574 40.993 54.8761 40.8453C54.7948 40.6975 54.6775 40.5727 54.535 40.4825ZM53 52C53 52.2652 52.8947 52.5196 52.7071 52.7071C52.5196 52.8947 52.2652 53 52 53H16C15.7348 53 15.4805 52.8947 15.2929 52.7071C15.1054 52.5196 15 52.2652 15 52V41.3275C15.0001 41.1589 14.9574 40.993 14.8761 40.8453C14.7948 40.6975 14.6775 40.5727 14.535 40.4825C14.3927 40.3922 14.2298 40.3393 14.0615 40.3288C13.8932 40.3183 13.725 40.3506 13.5725 40.4225C12.6877 40.8425 11.7135 41.0394 10.735 40.9962C9.75647 40.9529 8.80344 40.6708 7.9591 40.1744C7.11476 39.678 6.40478 38.9824 5.89115 38.1484C5.37752 37.3145 5.07587 36.3674 5.01253 35.39C4.9442 34.3467 5.1497 33.3036 5.60866 32.3641C6.06763 31.4247 6.76413 30.6215 7.62913 30.0341C8.49414 29.4468 9.49761 29.0956 10.5401 29.0155C11.5826 28.9354 12.628 29.1292 13.5725 29.5775C13.7248 29.6495 13.8929 29.6819 14.061 29.6716C14.2292 29.6614 14.392 29.6088 14.5344 29.5188C14.6768 29.4287 14.7942 29.3042 14.8756 29.1567C14.957 29.0092 14.9998 28.8435 15 28.675V18C15 17.7348 15.1054 17.4805 15.2929 17.2929C15.4805 17.1054 15.7348 17 16 17H27.6725C27.8412 17.0002 28.0072 16.9577 28.155 16.8765C28.3029 16.7952 28.4278 16.6779 28.5181 16.5355C28.6084 16.393 28.6612 16.23 28.6716 16.0616C28.682 15.8933 28.6496 15.725 28.5775 15.5725C28.1576 14.6877 27.9606 13.7135 28.0039 12.735C28.0472 11.7565 28.3293 10.8034 28.8257 9.9591C29.3221 9.11476 30.0176 8.40478 30.8516 7.89115C31.6856 7.37752 32.6326 7.07587 33.61 7.01253C34.6534 6.9442 35.6964 7.1497 36.6359 7.60866C37.5754 8.06763 38.3786 8.76413 38.9659 9.62913C39.5533 10.4941 39.9044 11.4976 39.9845 12.5401C40.0646 13.5826 39.8709 14.628 39.4225 15.5725C39.3504 15.725 39.3181 15.8933 39.3284 16.0616C39.3388 16.23 39.3916 16.393 39.482 16.5355C39.5723 16.6779 39.6972 16.7952 39.845 16.8765C39.9929 16.9577 40.1588 17.0002 40.3275 17H52C52.2652 17 52.5196 17.1054 52.7071 17.2929C52.8947 17.4805 53 17.7348 53 18V27.25C52.1573 27.0342 51.2854 26.9549 50.4175 27.015C49.3149 27.1036 48.2426 27.4198 47.2684 27.9438C46.2942 28.4677 45.4393 29.1881 44.7576 30.0592C44.0759 30.9303 43.5822 31.9334 43.3079 33.005C43.0335 34.0766 42.9843 35.1935 43.1635 36.285C43.3426 37.3766 43.7462 38.4191 44.3487 39.3468C44.9512 40.2745 45.7396 41.0672 46.664 41.6747C47.5884 42.2822 48.6287 42.6915 49.7193 42.8766C50.8098 43.0617 51.9269 43.0186 53 42.75V52Z" stroke="#B4B4B4" stroke-width="0.6" mask="url(#path-1-outside-1_3_959)"/>
</svg>
