<svg width="36" height="36" viewBox="0 0 36 36" fill="none" xmlns="http://www.w3.org/2000/svg">
<g clip-path="url(#clip0_3_530)">
<path fill-rule="evenodd" clip-rule="evenodd" d="M34.0128 0.000488281H1.9872C0.8892 0.000488281 0 0.889688 0 1.98769V34.0133C0 35.1113 0.8892 36.0005 1.9872 36.0005H19.2276V22.0595H14.5368V16.6271H19.2276V12.6185C19.2276 7.96729 22.068 5.43649 26.217 5.43649C28.2042 5.43649 29.9106 5.58409 30.4092 5.65069V10.5107H27.5328C25.2756 10.5107 24.84 11.5835 24.84 13.1567V16.6253H30.2202L29.5182 22.0577H24.8382V36.0005H34.0128C35.1108 36.0005 36 35.1113 36 34.0133V1.98769C36 0.889688 35.1108 0.000488281 34.0128 0.000488281Z" fill="black"/>
</g>
<defs>
<clipPath id="clip0_3_530">
<rect width="36" height="36" fill="white" transform="translate(0 0.000488281)"/>
</clipPath>
</defs>
</svg>
