<svg width="28" height="25" viewBox="0 0 28 25" fill="none" xmlns="http://www.w3.org/2000/svg">
<path d="M14.2709 20.9441L14.1364 21.0786L13.9885 20.9441C7.6012 15.1485 3.37885 11.3161 3.37885 7.42989C3.37885 4.7405 5.39589 2.72345 8.08529 2.72345C9.71912 2.72345 11.3195 3.56049 12.2722 4.81192C12.7289 5.41189 13.3824 5.89694 14.1364 5.89694C14.8905 5.89694 15.5439 5.41189 16.0007 4.81192C16.9534 3.56049 18.5537 2.72345 20.1876 2.72345C22.877 2.72345 24.894 4.7405 24.894 7.42989C24.894 11.3161 20.6717 15.1485 14.2709 20.9441ZM20.1876 0.0340576C17.8478 0.0340576 15.6021 1.12326 14.1364 2.83103C12.6707 1.12326 10.4251 0.0340576 8.08529 0.0340576C3.94362 0.0340576 0.689453 3.27478 0.689453 7.42989C0.689453 12.4994 5.26142 16.6545 12.1866 22.9342L14.1364 24.7092L16.0862 22.9342C23.0114 16.6545 27.5834 12.4994 27.5834 7.42989C27.5834 3.27478 24.3292 0.0340576 20.1876 0.0340576Z" fill="#B4B4B4"/>
</svg>
