<svg width="28" height="25" viewBox="0 0 28 25" fill="none" xmlns="http://www.w3.org/2000/svg">
<path d="M14.2709 20.9442L14.1364 21.0787L13.9885 20.9442C7.6012 15.1486 3.37885 11.3162 3.37885 7.43001C3.37885 4.74062 5.39589 2.72357 8.08529 2.72357C9.71912 2.72357 11.3195 3.56062 12.2722 4.81204C12.7289 5.41202 13.3824 5.89706 14.1364 5.89706C14.8905 5.89706 15.5439 5.41202 16.0007 4.81204C16.9534 3.56062 18.5537 2.72357 20.1876 2.72357C22.877 2.72357 24.894 4.74062 24.894 7.43001C24.894 11.3162 20.6717 15.1486 14.2709 20.9442ZM20.1876 0.0341797C17.8478 0.0341797 15.6021 1.12338 14.1364 2.83115C12.6707 1.12338 10.4251 0.0341797 8.08529 0.0341797C3.94362 0.0341797 0.689453 3.2749 0.689453 7.43001C0.689453 12.4995 5.26142 16.6546 12.1866 22.9344L14.1364 24.7094L16.0862 22.9344C23.0114 16.6546 27.5834 12.4995 27.5834 7.43001C27.5834 3.2749 24.3292 0.0341797 20.1876 0.0341797Z" fill="#B4B4B4"/>
</svg>
