<svg width="27" height="28" viewBox="0 0 27 28" fill="none" xmlns="http://www.w3.org/2000/svg">
<path fill-rule="evenodd" clip-rule="evenodd" d="M26.5282 14.2968C26.5282 13.3714 26.4452 12.4817 26.2909 11.6275H14.0002V16.6755H21.0235C20.7209 18.3067 19.8015 19.6888 18.4194 20.6142V23.8886H22.6369C25.1046 21.6167 26.5282 18.2711 26.5282 14.2968Z" fill="#4285F4"/>
<path fill-rule="evenodd" clip-rule="evenodd" d="M14.0002 27.0502C17.5237 27.0502 20.4777 25.8816 22.6369 23.8886L18.4194 20.6142C17.2508 21.3972 15.756 21.8598 14.0002 21.8598C10.6013 21.8598 7.72434 19.5642 6.69813 16.4797H2.33824V19.8608C4.48556 24.1258 8.89884 27.0502 14.0002 27.0502Z" fill="#34A853"/>
<path fill-rule="evenodd" clip-rule="evenodd" d="M6.69813 16.4797C6.43713 15.6967 6.28883 14.8603 6.28883 14.0002C6.28883 13.1401 6.43713 12.3037 6.69813 11.5207V8.13957H2.33824C1.4544 9.90132 0.950195 11.8944 0.950195 14.0002C0.950195 16.106 1.4544 18.0991 2.33824 19.8608L6.69813 16.4797Z" fill="#FBBC05"/>
<path fill-rule="evenodd" clip-rule="evenodd" d="M14.0002 6.14054C15.9162 6.14054 17.6364 6.79897 18.9889 8.09211L22.7318 4.34913C20.4718 2.24333 17.5178 0.950195 14.0002 0.950195C8.89884 0.950195 4.48556 3.8746 2.33824 8.13957L6.69813 11.5207C7.72433 8.43616 10.6013 6.14054 14.0002 6.14054Z" fill="#EA4335"/>
</svg>
