<svg width="37" height="36" viewBox="0 0 37 36" fill="none" xmlns="http://www.w3.org/2000/svg">
<path d="M18.5 0C23.5265 0 24.1536 0.0179999 26.1257 0.108C28.0959 0.198 29.4372 0.4986 30.6175 0.945C31.8385 1.4022 32.8671 2.0214 33.8957 3.0204C34.8364 3.92021 35.5643 5.00866 36.0288 6.21C36.4857 7.3566 36.7965 8.6634 36.889 10.5804C36.976 12.4992 37 13.1094 37 18C37 22.8906 36.9815 23.5008 36.889 25.4196C36.7965 27.3366 36.4857 28.6416 36.0288 29.79C35.5657 30.992 34.8376 32.0807 33.8957 32.9796C32.9706 33.8946 31.852 34.6028 30.6175 35.055C29.439 35.4996 28.0959 35.802 26.1257 35.892C24.1536 35.9766 23.5265 36 18.5 36C13.4735 36 12.8464 35.982 10.8743 35.892C8.90405 35.802 7.5628 35.4996 6.3825 35.055C5.1473 34.6041 4.02843 33.8957 3.1043 32.9796C2.1634 32.0799 1.43547 30.9914 0.97125 29.79C0.51245 28.6434 0.2035 27.3366 0.111 25.4196C0.0240499 23.5008 0 22.8906 0 18C0 13.1094 0.0184999 12.4992 0.111 10.5804C0.2035 8.6616 0.51245 7.3584 0.97125 6.21C1.43419 5.00792 2.16229 3.91918 3.1043 3.0204C4.02869 2.10462 5.14749 1.39631 6.3825 0.945C7.5628 0.4986 8.9022 0.198 10.8743 0.108C12.8464 0.0233999 13.4735 0 18.5 0ZM18.5 9C16.0467 9 13.694 9.94821 11.9593 11.636C10.2246 13.3239 9.25 15.6131 9.25 18C9.25 20.3869 10.2246 22.6761 11.9593 24.364C13.694 26.0518 16.0467 27 18.5 27C20.9533 27 23.306 26.0518 25.0407 24.364C26.7754 22.6761 27.75 20.3869 27.75 18C27.75 15.6131 26.7754 13.3239 25.0407 11.636C23.306 9.94821 20.9533 9 18.5 9ZM30.525 8.55C30.525 7.95326 30.2814 7.38097 29.8477 6.95901C29.414 6.53705 28.8258 6.3 28.2125 6.3C27.5992 6.3 27.011 6.53705 26.5773 6.95901C26.1436 7.38097 25.9 7.95326 25.9 8.55C25.9 9.14674 26.1436 9.71903 26.5773 10.141C27.011 10.5629 27.5992 10.8 28.2125 10.8C28.8258 10.8 29.414 10.5629 29.8477 10.141C30.2814 9.71903 30.525 9.14674 30.525 8.55ZM18.5 12.6C19.972 12.6 21.3836 13.1689 22.4244 14.1816C23.4653 15.1943 24.05 16.5678 24.05 18C24.05 19.4322 23.4653 20.8057 22.4244 21.8184C21.3836 22.8311 19.972 23.4 18.5 23.4C17.028 23.4 15.6164 22.8311 14.5756 21.8184C13.5347 20.8057 12.95 19.4322 12.95 18C12.95 16.5678 13.5347 15.1943 14.5756 14.1816C15.6164 13.1689 17.028 12.6 18.5 12.6Z" fill="black"/>
</svg>
