<svg width="36" height="36" viewBox="0 0 36 36" fill="none" xmlns="http://www.w3.org/2000/svg">
<path d="M35.979 27.1945C35.6581 29.6336 34.4602 31.8725 32.6092 33.4929C30.7582 35.1134 28.3806 36.0047 25.9205 36.0003C11.6282 36.0003 1.62878e-05 24.3721 1.62878e-05 10.0798C-0.00439375 7.61969 0.886868 5.24209 2.50734 3.39107C4.12781 1.54005 6.36667 0.342194 8.80577 0.0212361C9.42255 -0.0540755 10.0472 0.0721084 10.5863 0.380951C11.1255 0.689795 11.5503 1.16473 11.7974 1.73487L15.5991 10.222V10.2436C15.7882 10.68 15.8664 11.1565 15.8265 11.6305C15.7866 12.1045 15.6299 12.5612 15.3705 12.9599C15.3381 13.0085 15.3039 13.0535 15.2679 13.0985L11.5202 17.5409C12.8684 20.2806 15.7341 23.121 18.5097 24.4729L22.891 20.745C22.934 20.7088 22.9791 20.6752 23.026 20.6442C23.4243 20.3785 23.8826 20.2163 24.3594 20.1723C24.8362 20.1283 25.3164 20.2039 25.7567 20.3922L25.7801 20.403L34.26 24.2029C34.8311 24.449 35.3072 24.8735 35.6171 25.4128C35.927 25.952 36.0539 26.5771 35.979 27.1945Z" fill="black"/>
</svg>
