<svg width="37" height="36" viewBox="0 0 37 36" fill="none" xmlns="http://www.w3.org/2000/svg">
<path d="M18.5 0.000488281C23.5265 0.000488281 24.1536 0.0184882 26.1257 0.108488C28.0959 0.198488 29.4372 0.499088 30.6175 0.945488C31.8385 1.40269 32.8671 2.02189 33.8957 3.02089C34.8364 3.9207 35.5643 5.00915 36.0288 6.21049C36.4857 7.35709 36.7965 8.66389 36.889 10.5809C36.976 12.4997 37 13.1099 37 18.0005C37 22.8911 36.9815 23.5013 36.889 25.4201C36.7965 27.3371 36.4857 28.6421 36.0288 29.7905C35.5657 30.9925 34.8376 32.0812 33.8957 32.9801C32.9706 33.8951 31.852 34.6032 30.6175 35.0555C29.439 35.5001 28.0959 35.8025 26.1257 35.8925C24.1536 35.9771 23.5265 36.0005 18.5 36.0005C13.4735 36.0005 12.8464 35.9825 10.8743 35.8925C8.90405 35.8025 7.5628 35.5001 6.3825 35.0555C5.1473 34.6045 4.02843 33.8962 3.1043 32.9801C2.1634 32.0804 1.43547 30.9919 0.97125 29.7905C0.51245 28.6439 0.2035 27.3371 0.111 25.4201C0.0240499 23.5013 0 22.8911 0 18.0005C0 13.1099 0.0184999 12.4997 0.111 10.5809C0.2035 8.66209 0.51245 7.35889 0.97125 6.21049C1.43419 5.00841 2.16229 3.91967 3.1043 3.02089C4.02869 2.1051 5.14749 1.3968 6.3825 0.945488C7.5628 0.499088 8.9022 0.198488 10.8743 0.108488C12.8464 0.0238882 13.4735 0.000488281 18.5 0.000488281ZM18.5 9.00049C16.0467 9.00049 13.694 9.9487 11.9593 11.6365C10.2246 13.3244 9.25 15.6135 9.25 18.0005C9.25 20.3874 10.2246 22.6766 11.9593 24.3644C13.694 26.0523 16.0467 27.0005 18.5 27.0005C20.9533 27.0005 23.306 26.0523 25.0407 24.3644C26.7754 22.6766 27.75 20.3874 27.75 18.0005C27.75 15.6135 26.7754 13.3244 25.0407 11.6365C23.306 9.9487 20.9533 9.00049 18.5 9.00049ZM30.525 8.55049C30.525 7.95375 30.2814 7.38145 29.8477 6.9595C29.414 6.53754 28.8258 6.30049 28.2125 6.30049C27.5992 6.30049 27.011 6.53754 26.5773 6.9595C26.1436 7.38145 25.9 7.95375 25.9 8.55049C25.9 9.14723 26.1436 9.71952 26.5773 10.1415C27.011 10.5634 27.5992 10.8005 28.2125 10.8005C28.8258 10.8005 29.414 10.5634 29.8477 10.1415C30.2814 9.71952 30.525 9.14723 30.525 8.55049ZM18.5 12.6005C19.972 12.6005 21.3836 13.1694 22.4244 14.1821C23.4653 15.1948 24.05 16.5683 24.05 18.0005C24.05 19.4327 23.4653 20.8062 22.4244 21.8189C21.3836 22.8316 19.972 23.4005 18.5 23.4005C17.028 23.4005 15.6164 22.8316 14.5756 21.8189C13.5347 20.8062 12.95 19.4327 12.95 18.0005C12.95 16.5683 13.5347 15.1948 14.5756 14.1821C15.6164 13.1694 17.028 12.6005 18.5 12.6005Z" fill="black"/>
</svg>
