<svg width="36" height="36" viewBox="0 0 36 36" fill="none" xmlns="http://www.w3.org/2000/svg">
<path fill-rule="evenodd" clip-rule="evenodd" d="M34.0128 0H1.9872C0.8892 0 0 0.8892 0 1.9872V34.0128C0 35.1108 0.8892 36 1.9872 36H19.2276V22.059H14.5368V16.6266H19.2276V12.618C19.2276 7.9668 22.068 5.436 26.217 5.436C28.2042 5.436 29.9106 5.5836 30.4092 5.6502V10.5102H27.5328C25.2756 10.5102 24.84 11.583 24.84 13.1562V16.6248H30.2202L29.5182 22.0572H24.8382V36H34.0128C35.1108 36 36 35.1108 36 34.0128V1.9872C36 0.8892 35.1108 0 34.0128 0Z" fill="black"/>
</svg>
